<svg width="23" height="19" viewBox="0 0 23 19" fill="none" xmlns="http://www.w3.org/2000/svg">
<path fill-rule="evenodd" clip-rule="evenodd" d="M11.8157 0.334623L5.10031 4.5174H1.7001C0.765047 4.5174 0 5.27031 0 6.19052V12.883C0 13.8032 0.765047 14.5561 1.7001 14.5561H5.10031L11.8157 18.7389C12.5808 19.2408 13.6858 18.9898 14.1959 18.2369C14.3659 17.986 14.4509 17.6513 14.4509 17.4004V1.67311C14.4509 0.752901 13.6858 0 12.7508 0C12.4108 0.0836556 12.0707 0.167311 11.8157 0.334623ZM17.001 14.1378C16.491 14.1378 16.151 13.8032 16.151 13.3012C16.151 13.0503 16.236 12.7993 16.406 12.7157C18.1061 11.1262 18.2761 8.53288 16.746 6.77611L16.406 6.44148C16.066 6.10686 15.981 5.60493 16.321 5.27031C16.661 4.93568 17.171 4.85203 17.5111 5.18665C19.9762 7.3617 20.1462 11.0425 17.9361 13.4686C17.8759 13.5278 17.8263 13.5871 17.7799 13.6427C17.6952 13.7439 17.6209 13.8328 17.5111 13.8868C17.4261 14.0541 17.171 14.1378 17.001 14.1378ZM16.151 16.6475C16.151 17.0658 16.491 17.484 17.001 17.484C17.086 17.484 17.171 17.484 17.3411 17.5677C19.8062 16.7311 21.6763 14.807 22.5264 12.4647C24.0565 8.1146 21.7613 3.26257 17.3411 1.75677C16.916 1.58946 16.406 1.84042 16.236 2.2587C16.066 2.67698 16.321 3.17891 16.746 3.34623C18.6161 4.01547 20.1462 5.43762 20.8263 7.3617C22.1013 10.7916 20.3162 14.6397 16.746 15.8946C16.406 15.9782 16.151 16.3129 16.151 16.6475Z" fill="white"/>
</svg>
