<svg width="305" height="95" viewBox="0 0 305 95" fill="none" xmlns="http://www.w3.org/2000/svg">
<path fill-rule="evenodd" clip-rule="evenodd" d="M173.383 8.571C174.964 8.805 176.546 9.039 178.109 9.273C178.314 9.429 178.535 9.403 178.721 9.429C176.596 9.299 174.438 9.143 172.279 9.065C172.602 8.831 173.094 8.883 173.383 8.571ZM68.826 11.6196C67.908 11.5676 67.024 11.7756 66.174 12.2436C67.16 12.5296 68.061 12.4256 68.826 11.6196ZM304.986 51.0527C305.126 50.183 304.216 49.7737 303.253 49.9016C300.785 50.1574 298.948 49.0831 297.425 47.3437C297.233 47.139 297.023 46.9088 296.813 46.7042C296.62 46.4739 296.428 46.2693 296.235 46.0391C296.13 45.681 296.043 45.3484 295.938 45.0159C296.2 44.6066 296.463 44.1973 296.708 43.7881C297.355 43.3276 298.125 43.3788 298.878 43.3532C299.42 43.4044 299.945 43.1742 300.47 43.3788C302.081 43.609 302.588 42.816 302.816 41.7929C303.078 41.4603 303.411 41.2813 303.516 40.7697C303.673 40.2836 303.568 39.8744 303.551 39.4139C303.796 39.1837 304.146 39.0302 304.181 38.5954C304.251 38.0071 304.303 37.3931 304.373 36.7792C304.268 36.5746 304.163 36.3444 304.058 36.1142C304.163 36.063 304.268 36.1397 304.373 36.7792C305.353 35.7049 304.723 34.4003 304.793 33.1981C304.741 30.2564 305.108 27.2891 304.268 24.3986C306.071 19.1292 304.443 16.2131 299.963 16.7503C299.7 14.7039 298.073 16.341 297.338 15.6248C296.9 15.3946 296.463 15.1643 296.008 14.9341C295.798 14.2435 295.308 14.2946 294.8 14.3458C292.7 13.4761 290.477 13.8853 288.307 13.604C287.957 13.3993 287.747 13.1435 287.292 12.9645C287.03 13.0668 286.907 13.297 286.732 13.5272C286.732 13.5016 286.732 13.5016 286.732 13.5016C286.925 13.3226 287.1 13.1435 287.292 12.9645C287.1 12.8366 286.872 12.8877 286.662 12.7854C286.662 11.6855 287.03 10.3298 285.577 10.3042C283.372 10.253 281.289 8.97403 279.049 9.58795C278.927 9.56237 278.787 9.56237 278.647 9.53679C278.612 9.51121 278.577 9.48563 278.542 9.48563C277.649 8.82056 276.599 8.6415 275.479 8.6415C274.866 6.79975 273.326 7.74621 272.154 7.61831C271.121 7.56715 270.106 7.51599 269.091 7.46483L269.108 7.54157C269.073 7.56715 269.056 7.59273 269.021 7.61831C269.038 7.56715 269.056 7.51599 269.091 7.46483C267.831 6.3649 266.308 6.16026 264.681 6.28816C262.913 5.67425 260.83 6.54396 259.185 5.26497C258.87 5.03475 257.89 4.90685 257.995 5.57193C258.258 7.20903 256.875 6.92765 256.14 7.36251C256.053 7.36251 255.983 7.36251 255.895 7.36251C254.092 6.54396 252.167 7.18345 250.33 6.95323C250.277 6.95323 250.242 6.87649 250.19 6.90207C250.137 6.92765 250.102 6.92765 250.05 6.92765C249.7 6.87649 249.315 7.02997 248.965 6.82533C247.932 6.82533 246.934 6.82533 245.902 6.82533C244.642 5.90446 243.277 5.93004 241.842 6.237C241.387 6.21142 240.897 6.05794 240.704 6.72302C240.249 6.90207 239.759 7.10671 239.304 7.31135C238.131 7.28577 236.941 7.26019 235.769 7.23461C235.996 5.23939 234.736 6.00678 233.861 6.08352C233.249 5.00917 232.234 5.29055 231.446 5.44403C229.293 5.82772 231.849 6.31374 231.464 6.82533C230.798 7.02997 230.203 7.66947 229.433 7.28577C228.033 6.59512 226.616 6.31374 225.128 6.7486C224.288 5.87888 224.148 6.92765 223.781 7.36251C222.573 7.74621 221.225 7.31135 220.053 7.97642C219.93 7.51599 219.825 6.72302 219.703 6.85091C219.3 7.26019 218.705 7.41367 218.18 7.66947C217.603 7.54157 216.973 7.64389 216.43 7.28577C216.185 7.10671 215.993 7.36251 215.748 7.36251C215.993 7.33693 216.22 7.31135 216.43 7.28577C216.588 6.72302 216.763 6.16026 216.938 5.59751C215.8 5.26497 215.065 5.93004 214.382 6.7486C213.997 6.72302 213.595 6.72302 213.192 6.69744C213.035 5.34171 212.142 5.34171 211.215 5.44403C210.725 5.59751 209.815 5.69983 209.815 5.8533C209.71 7.84852 208.765 8.10432 207.732 8.02758C207.032 7.51599 206.314 7.18345 205.334 7.79737C205.387 7.89968 205.474 7.84852 205.527 7.92526C204.687 7.95084 203.864 8.002 203.024 8.002C202.867 7.8741 202.709 7.74621 202.517 7.64389C202.482 7.36251 202.447 7.08113 202.429 6.79975C201.817 7.05555 201.204 7.31135 200.609 7.56715C199.769 7.59273 198.929 7.64389 198.106 7.66947C197.651 7.54157 197.231 7.43925 196.776 7.33693L196.829 7.54157C196.759 7.54157 196.706 7.51599 196.654 7.51599C196.689 7.43925 196.741 7.38809 196.776 7.33693C196.181 4.67663 194.729 4.98359 193.066 6.05794C193.049 6.05794 193.031 6.08352 193.014 6.05794C193.014 6.08352 192.996 6.05794 192.996 6.08352C191.946 6.00678 191.001 5.11149 189.863 5.46961C189.811 5.46961 189.758 5.44403 189.706 5.44403C189.863 5.36729 190.003 5.26497 190.108 5.23939C190.353 5.13707 190.598 5.00917 190.948 4.83011C189.933 4.26736 189.163 4.54874 189.146 5.08591C189.128 5.31613 189.251 5.26497 189.321 5.34171C188.603 5.11149 187.868 4.83011 187.361 5.95562C187.378 6.03236 187.413 6.1091 187.431 6.18584C187.396 6.18584 187.378 6.18584 187.343 6.18584L187.361 5.95562C186.363 6.1091 185.366 6.26258 184.263 6.41606C184.928 7.59273 185.768 7.51599 186.591 7.54157C186.818 7.77179 187.046 7.97642 187.238 8.20664C187.238 8.20664 187.238 8.20664 187.238 8.23222C186.048 8.23222 184.928 8.23222 183.58 8.23222C184.823 8.69266 185.856 8.99961 186.976 8.87171C186.888 9.05077 186.801 9.25541 186.713 9.46005C186.066 9.74143 185.418 10.56 184.718 9.53679C183.318 6.97881 181.83 9.25541 180.395 9.43447C180.203 9.46005 179.993 9.48563 179.818 9.48563C179.958 9.40889 180.185 9.33215 180.203 9.12751C180.273 8.10432 179.153 8.79498 178.61 8.56476C176.79 7.64389 174.865 8.18106 172.975 8.18106C170.14 10.0228 166.902 7.43925 163.944 8.89729C164.679 9.30657 165.344 9.25541 166.062 9.48563C165.204 9.58795 164.347 9.51121 163.489 9.69027C162.877 9.58795 162.264 9.51121 161.652 9.46005C158.956 8.02758 156.226 9.17867 153.531 9.40889C153.374 9.33215 153.216 9.38331 153.059 9.33215C153.094 8.79498 153.199 8.30896 153.759 8.33454C152.604 7.97642 151.588 7.61831 150.801 8.6415C150.801 8.6415 150.783 8.6415 150.801 8.6415C150.573 8.66708 150.626 8.89729 150.468 8.97403C149.016 8.89729 147.581 8.84613 146.111 8.89729C146.058 8.76939 146.163 8.69266 145.988 8.53918C145.148 7.82294 144.518 8.33454 143.905 8.87171C143.45 8.82055 143.013 8.7694 142.575 8.69266C141.823 8.59034 141.088 8.53918 140.335 8.43686C139.968 8.41128 139.618 8.23222 139.25 8.30896C136.625 7.97642 134 7.8741 131.41 8.89729C131.235 8.82055 131.06 8.7694 130.885 8.7694C130.027 7.72063 129.152 7.84852 128.277 8.71824C128.277 8.92287 128.277 9.12751 128.294 9.33215C128.277 9.33215 128.259 9.33215 128.242 9.33215C128.312 9.12751 128.399 8.94845 128.277 8.71824C126.142 9.20425 124.199 7.69505 122.082 8.07874C119.054 7.38809 116.026 6.87649 113.209 8.82055C111.913 9.05077 110.863 8.30896 109.656 7.43925C109.796 8.5136 109.901 9.20425 110.006 9.89491C109.726 9.89491 109.516 10.1507 109.288 10.2786C108.431 10.9181 107.731 12.6575 106.471 10.6879V10.7135C106.226 10.4832 105.998 10.2786 105.753 10.0484C103.845 7.36251 101.15 7.18345 98.3326 7.38809C97.2125 7.46483 96.0749 7.46483 94.9373 7.51599C93.0647 7.23461 91.2096 6.90207 89.337 7.54157C86.9568 7.79736 84.5242 7.28577 82.1965 8.10432C81.8815 8.10432 81.584 8.10432 81.269 8.10432C80.9715 7.33693 79.9214 7.15787 79.8514 7.56715C79.3438 10.6367 78.7663 8.7694 77.7512 7.84852C76.2812 6.54396 73.8135 7.69505 73.2535 9.92048C73.131 9.89491 73.0084 9.8949 72.9034 9.86932C71.9234 7.82294 70.6108 6.77417 68.5982 7.56715C66.2355 7.89968 63.5753 6.18584 61.5452 8.74382C61.3702 8.53918 61.2127 8.33454 61.0552 8.10432C59.8651 6.67186 58.29 6.82533 56.7324 6.77418C54.7898 6.69744 52.7772 7.43925 50.992 6.08352C51.3946 5.80214 51.8146 5.57193 52.2171 5.29055C54.5623 5.82772 56.7674 4.5999 59.0951 4.65106C60.6702 4.49758 62.4378 5.34171 64.5904 3.37207C60.7402 3.52555 57.7125 3.19301 54.8073 2.04192C54.3348 1.86286 53.7922 2.14424 53.4422 2.60468C52.3921 2.70699 51.2196 2.50236 50.747 3.93482C50.3795 3.24417 50.117 2.40004 49.1019 2.65583C48.4894 1.88844 46.7218 2.5791 47.0018 0.558295C47.1068 -0.183518 46.1267 -0.0556187 45.8292 0.200179C44.1491 1.63264 42.084 0.660614 40.3164 1.35127C38.6888 1.19779 37.1662 1.42801 35.9061 2.65583C35.9236 2.73257 35.9586 2.78373 35.9761 2.83489C35.9411 2.80931 35.9061 2.78373 35.8711 2.73257L35.9061 2.65583C34.891 2.73257 33.876 2.78373 32.8434 2.83489C31.6708 2.98837 30.1307 1.91402 29.5182 3.98598C28.3981 3.98598 27.348 4.16504 26.438 4.93243C25.4229 5.57193 24.4079 6.21142 23.3928 6.82533C23.1478 6.97881 22.9028 7.13229 22.6752 7.28577C20.8376 7.15787 19.21 7.77179 17.7049 8.84614C17.9149 9.05077 18.1075 9.28099 18.3175 9.48563C18.3175 9.48563 18.3175 9.48563 18.3175 9.51121C18.16 9.22983 17.9849 8.97403 17.7049 8.84614C16.0073 9.53679 14.7997 10.5344 15.7273 12.7598C15.3248 13.0156 14.9398 13.2714 14.5372 13.5272C13.6797 14.8318 12.2621 13.0668 11.3695 14.1923C10.6345 14.5248 10.4245 15.6503 9.47941 15.6759C8.62185 15.6503 7.69429 15.1643 7.06425 16.2387C6.48672 16.9038 7.8168 17.6456 7.01175 18.2851C6.10169 18.7967 5.33164 19.4873 4.31658 19.8454C4.19407 19.8966 4.15907 20.0245 4.05406 20.1012C0.431333 20.1524 -0.933754 22.5569 0.728852 26.8543C-0.111202 29.4123 0.256322 32.0725 0.203818 34.6817C0.256322 35.7816 -0.356217 36.9327 0.623845 37.9047C0.693849 38.4419 0.763854 38.9791 0.816357 39.5163C0.868861 40.2069 1.35889 40.5394 1.91893 40.8208C2.11144 42.3556 2.05894 44.095 4.50909 43.7881C5.83918 43.3788 7.15176 43.5579 8.48184 43.7113C8.67436 44.0695 8.84937 44.402 9.05938 44.7345C8.95438 45.1438 8.84937 45.5019 8.76186 45.8856C8.56935 46.1414 8.37684 46.3972 8.16682 46.653C7.97431 46.8832 7.7643 47.139 7.57179 47.3692C6.04919 49.3133 4.21157 50.5411 1.74392 50.2086C0.781355 50.0807 -0.111202 50.5411 0.011306 51.5387C0.151315 52.6642 1.25388 52.1015 1.97143 52.1271C2.39146 52.2294 2.88149 52.2038 3.0215 52.7921C1.69141 53.8409 2.77648 54.0967 3.49403 54.0711C4.6666 54.0456 5.83918 53.713 7.01175 53.5084C6.99425 53.9432 6.97675 54.3525 6.95925 54.7874C6.1542 55.0687 5.34915 55.3501 4.54409 55.6571C3.35402 55.8361 2.16394 55.9896 0.973867 56.1687C0.991368 56.3477 0.991368 56.5268 1.00887 56.7058C1.76142 56.9105 2.49646 57.0896 3.19651 57.243C2.72398 58.522 0.571342 56.3477 0.851359 58.7011C0.903863 59.1871 -0.0586984 60.2614 1.5339 60.594C2.81148 60.8498 3.66904 61.0032 4.36908 59.6987C4.40409 59.9289 4.47409 60.108 4.6141 60.287C4.80661 60.0568 4.98162 59.8266 5.17413 59.5708C5.22664 59.6475 5.22664 59.7243 5.26164 59.801C5.01662 59.9289 4.73661 59.9801 4.6141 60.287C4.5616 60.4917 4.54409 60.6963 4.54409 60.9009C4.31658 61.3869 4.08907 61.8985 3.84405 62.4101C2.91649 62.5125 1.83142 61.8985 1.04387 62.9985C1.5514 64.1496 2.47896 63.6124 3.19651 63.7659C3.40652 64.2007 3.61654 64.61 3.82655 65.0448C3.14401 65.2495 2.35646 64.7891 1.72642 65.4797C2.61897 66.0425 3.54653 65.6332 4.43909 65.7099C5.27914 65.9657 6.1367 66.2215 6.99425 66.4773C5.94418 67.833 4.40409 66.6308 2.82898 67.6028C4.82411 67.5261 5.66417 69.7004 7.50178 69.2143C7.02925 70.877 5.75167 70.5445 4.6666 70.4933C3.56403 70.4422 3.26651 71.6444 3.65154 71.8491C6.45172 73.5629 2.9865 72.9234 3.1265 73.5629C5.15663 74.8675 7.18676 76.1209 9.53191 76.5813C10.582 76.9906 11.632 77.4255 12.6821 77.8603C13.6622 77.937 14.6422 78.0394 15.6048 78.1161C16.4449 78.7556 17.3899 78.6533 18.335 78.5254C20.6276 78.6021 22.9203 78.6789 25.2304 78.7556L25.1779 78.4742C25.1954 78.4742 25.1779 78.4486 25.1954 78.4231C25.1779 78.4486 25.1954 78.4742 25.1779 78.4742C25.2479 78.4998 25.3004 78.4998 25.3704 78.4998C25.3179 78.6021 25.2654 78.6789 25.2304 78.7556C25.3354 78.8323 25.4754 78.8068 25.5979 78.8579C25.7904 79.3439 26.0705 79.8299 26.4555 80.2648C27.4706 80.9043 26.0005 82.0554 27.0505 82.6949C27.0505 82.9251 27.138 83.053 27.313 83.1809C29.2907 84.7157 31.8108 84.2808 34.0335 84.9203C36.8512 86.1226 39.8788 86.3528 42.854 86.7365C43.9216 87.1202 44.7966 88.0155 46.0392 87.8876C47.2993 88.0922 48.5419 88.3224 49.767 88.5271C52.7247 89.0387 55.5598 90.599 58.6925 89.2945C60.6702 89.2945 62.6828 89.2944 64.6604 89.32C67.8981 89.9339 71.1183 90.1642 74.3385 89.2433C78.4863 89.2177 82.6691 89.2177 86.8343 89.2177L87.1318 89.2945L87.4469 89.2177C92.4697 89.1921 97.4925 89.141 102.515 89.1154C106.086 89.1154 109.673 89.0898 113.243 89.0898C113.296 88.8852 113.156 88.7317 113.051 88.5782C113.103 88.5782 113.156 88.5782 113.226 88.5782C113.208 88.5782 113.191 88.5782 113.174 88.5526C113.174 88.5782 113.191 88.5526 113.191 88.5782C113.226 88.6038 113.261 88.5526 113.296 88.5782C113.279 88.5782 113.261 88.5782 113.226 88.5782C113.243 88.7573 113.243 88.9108 113.243 89.0898C114.486 89.0898 115.711 89.0898 116.954 89.0898C119.544 89.0387 122.169 89.5503 124.724 88.655C125.739 88.6038 126.754 88.5782 127.769 88.5526C128.767 88.8852 129.817 88.7829 130.867 88.7317C132.075 88.348 133.282 88.348 134.507 88.7317C134.962 88.7317 135.4 88.7317 135.855 88.7317C137.588 89.8316 139.443 90.3688 141.473 90.0618C141.893 90.0618 142.295 90.0874 142.715 90.0874C143.153 90.1386 143.573 90.1642 144.01 90.1897L144.238 90.3176L144.5 90.2921C145.743 91.0339 147.091 90.7269 148.421 90.7781C149.208 90.8292 150.013 90.8804 150.836 90.9571C151.833 91.7245 152.971 91.5455 154.091 91.4687C154.879 91.5199 155.666 91.5711 156.454 91.6478C156.891 91.5455 157.031 91.085 157.276 90.7781C157.014 91.0595 156.664 91.3153 156.454 91.6478C157.906 92.364 159.464 92.185 161.004 92.1338C162.002 92.185 163.017 92.2361 164.014 92.2873C165.449 93.1826 167.007 92.9012 168.53 92.7989C169.317 92.8756 170.105 92.9524 170.892 93.0035C172.327 93.95 173.885 93.4384 175.39 93.464C177.018 93.5407 178.645 93.5919 180.273 93.6686C182.81 94.6662 185.453 94.1034 188.043 94.1546C189.286 94.1546 190.528 94.1546 191.753 94.1546C191.753 93.95 191.753 93.7709 191.753 93.5919C191.736 93.5919 191.718 93.5919 191.701 93.5919C191.736 93.5663 191.771 93.5919 191.806 93.5663H191.824C191.806 93.5919 191.788 93.5663 191.771 93.5919C191.841 93.5919 191.893 93.5919 191.946 93.5919C191.841 93.7453 191.701 93.8988 191.753 94.1546C195.324 94.1546 198.894 94.1802 202.482 94.1802C207.522 94.2313 212.545 94.2569 217.55 94.3081C217.55 94.3081 217.55 94.3081 217.568 94.3081L217.848 94.3592L218.163 94.2825C222.328 94.2825 226.511 94.3081 230.676 94.3081C233.879 95.3313 237.099 95.1011 240.337 94.3848C242.332 94.3848 244.309 94.3848 246.304 94.3848C249.42 95.8429 252.272 94.0779 255.213 93.5151C256.455 93.2849 257.715 93.0291 258.958 92.7989C260.2 92.9268 261.075 91.9292 262.143 91.5199C265.118 91.085 268.146 90.8292 270.964 89.4735C273.186 88.7829 275.706 89.2689 277.684 87.5294C277.859 87.4016 277.946 87.2225 277.964 86.9923C278.997 86.276 277.526 84.9459 278.542 84.2297C279.347 83.2065 279.819 82.0554 279.662 80.6741C280.292 78.9091 279.907 77.1441 279.767 75.3535C279.767 75.3535 279.767 75.3535 279.749 75.3279C279.749 75.2512 279.749 75.2 279.749 75.1233C279.767 75.1233 279.784 75.0977 279.802 75.0977L279.767 75.3535C282.059 75.2768 284.369 75.2256 286.662 75.1488C287.607 75.2767 288.552 75.3535 289.392 74.7907C290.372 74.714 291.352 74.6117 292.315 74.5349C293.365 74.1768 294.398 73.7931 295.465 73.4094C297.81 73.0002 299.84 71.9002 301.87 70.7236C302.028 70.1608 298.563 70.7236 301.363 69.2143C301.73 69.0097 301.45 67.9354 300.33 67.9865C299.245 68.0377 297.968 68.3191 297.495 66.861C299.333 67.2703 300.173 65.3262 302.168 65.4285C300.61 64.5588 299.053 65.6076 298.02 64.3798C298.86 64.1751 299.718 63.9449 300.558 63.7147C301.45 63.6635 302.396 63.9961 303.253 63.5101C302.641 62.8961 301.853 63.3054 301.17 63.1264C301.38 62.7427 301.59 62.359 301.783 61.9753C302.518 61.8218 303.446 62.3078 303.953 61.3102C303.166 60.3126 302.098 60.8753 301.153 60.773C300.908 60.3126 300.698 59.8777 300.453 59.4173C300.453 59.2382 300.418 59.0592 300.383 58.8801C300.505 58.7267 300.593 58.5476 300.628 58.343C301.328 59.494 302.186 59.3917 303.481 59.1359C305.056 58.8545 304.093 57.9081 304.146 57.4732C304.426 55.3501 302.273 57.2942 301.8 56.1687C302.501 56.0152 303.236 55.8617 303.988 55.6827C303.988 55.5292 304.006 55.3501 304.023 55.1966C302.833 55.0432 301.643 54.8897 300.453 54.7362C299.648 54.4804 298.843 54.2246 298.02 53.9688C298.02 53.5851 297.985 53.2014 297.968 52.8177C299.158 53.0224 300.33 53.2782 301.52 53.3293C302.221 53.3549 303.306 53.1503 301.958 52.2038C302.116 51.6666 302.606 51.6922 303.026 51.5899C303.743 51.5643 304.828 52.0759 304.986 51.0527Z" fill="#F8E7F1"/>
</svg>
