<svg width="38" height="40" viewBox="0 0 38 40" fill="none" xmlns="http://www.w3.org/2000/svg">
<path id="Instagram" fill-rule="evenodd" clip-rule="evenodd" d="M34.6964 28.4983C34.6964 32.5842 31.3842 35.8964 27.2991 35.8964H10.4481C6.36296 35.8964 3.05076 32.5842 3.05076 28.4983V11.6481C3.05076 7.56215 6.36296 4.25076 10.4481 4.25076H27.2991C31.3842 4.25076 34.6964 7.56215 34.6964 11.6481V28.4983ZM27.3416 1.2H10.4056C4.65947 1.2 0 5.85866 0 11.6056V28.5416C0 34.2885 4.65947 38.9464 10.4056 38.9464H27.3416C33.0877 38.9464 37.7472 34.2885 37.7472 28.5416V11.6056C37.7472 5.85866 33.0877 1.2 27.3416 1.2ZM18.8732 26.5612C15.2897 26.5612 12.386 23.6575 12.386 20.074C12.386 16.4906 15.2897 13.5852 18.8732 13.5852C22.4575 13.5852 25.3612 16.4906 25.3612 20.074C25.3612 23.6575 22.4575 26.5612 18.8732 26.5612ZM18.8732 10.126C13.3795 10.126 8.92596 14.5795 8.92596 20.074C8.92596 25.5677 13.3795 30.0212 18.8732 30.0212C24.3677 30.0212 28.8212 25.5677 28.8212 20.074C28.8212 14.5795 24.3677 10.126 18.8732 10.126ZM29.1595 12.0264C30.3916 12.0264 31.39 11.0279 31.39 9.79588C31.39 8.563 30.3916 7.56378 29.1595 7.56378C27.9266 7.56378 26.9274 8.563 26.9274 9.79588C26.9274 11.0279 27.9266 12.0264 29.1595 12.0264Z" fill="url(#paint0_linear)"/>
<defs>
<linearGradient id="paint0_linear" x1="-18.8736" y1="20.0732" x2="18.8728" y2="57.8204" gradientUnits="userSpaceOnUse">
<stop stop-color="#5A31DC"/>
<stop offset="0.493327" stop-color="#E41052"/>
<stop offset="1" stop-color="#FFB824"/>
</linearGradient>
</defs>
</svg>
