<svg width="44" height="44" viewBox="0 0 44 44" fill="none" xmlns="http://www.w3.org/2000/svg">
<path id="Instagram" fill-rule="evenodd" clip-rule="evenodd" d="M40.4439 31.821C40.4439 36.5838 36.583 40.4448 31.8212 40.4448H12.1788C7.41698 40.4448 3.55611 36.5838 3.55611 31.821V12.179C3.55611 7.41619 7.41698 3.55619 12.1788 3.55619H31.8212C36.583 3.55619 40.4439 7.41619 40.4439 12.179V31.821ZM31.8707 0H12.1293C5.43131 0 0 5.43048 0 12.1295V31.8714C0 38.5705 5.43131 44 12.1293 44H31.8707C38.5687 44 44 38.5705 44 31.8714V12.1295C44 5.43048 38.5687 0 31.8707 0ZM21.9995 29.5629C17.8225 29.5629 14.4378 26.1781 14.4378 22.001C14.4378 17.8238 17.8225 14.4371 21.9995 14.4371C26.1775 14.4371 29.5622 17.8238 29.5622 22.001C29.5622 26.1781 26.1775 29.5629 21.9995 29.5629ZM21.9995 10.4048C15.5959 10.4048 10.4045 15.5962 10.4045 22.001C10.4045 28.4048 15.5959 33.5962 21.9995 33.5962C28.4041 33.5962 33.5955 28.4048 33.5955 22.001C33.5955 15.5962 28.4041 10.4048 21.9995 10.4048ZM33.9897 12.62C35.4259 12.62 36.5897 11.4562 36.5897 10.02C36.5897 8.58286 35.4259 7.4181 33.9897 7.4181C32.5526 7.4181 31.3879 8.58286 31.3879 10.02C31.3879 11.4562 32.5526 12.62 33.9897 12.62Z" fill="white"/>
</svg>
