<svg width="32" height="21" viewBox="0 0 32 21" fill="none" xmlns="http://www.w3.org/2000/svg">
<path fill-rule="evenodd" clip-rule="evenodd" d="M7.44549 8.36039L6.91882 16.3442L7.44549 8.36039ZM6.91882 16.3442C6.9078 16.5708 7.02474 16.7832 7.22128 16.8938L6.91882 16.3442ZM7.22128 16.8938C7.41321 16.9888 7.64134 16.977 7.82422 16.8627L7.22128 16.8938ZM7.82422 16.8627L13.1668 14.4802L7.82422 16.8627ZM13.1668 14.4802L18.326 20.2989L13.1668 14.4802ZM18.326 20.2989C18.4465 20.4346 18.6237 20.5057 18.8053 20.4911L18.326 20.2989ZM18.8053 20.4911C18.9868 20.4766 19.1519 20.378 19.2517 20.2246L18.8053 20.4911ZM19.2517 20.2246L31.2979 1.70536L19.2517 20.2246ZM31.2979 1.70536C31.4195 1.51835 31.4255 1.27922 31.3133 1.08827L31.2979 1.70536ZM31.3133 1.08827C31.201 0.897319 30.99 0.787566 30.7687 0.80504L31.3133 1.08827ZM30.7687 0.80504L1.00543 3.15711L30.7687 0.80504ZM1.00543 3.15711C0.753001 3.17716 0.540864 3.35789 0.480067 3.60469L1.00543 3.15711ZM0.480067 3.60469C0.419269 3.85149 0.523654 4.10816 0.738592 4.24036L0.480067 3.60469ZM11.0349 10.9704L25.5371 3.45099L8.60628 8.48953L8.2085 14.5193L10.8402 11.1325C10.8927 11.0651 10.9592 11.0098 11.0349 10.9704Z" fill="white"/>
</svg>
