<svg width="40" height="36" viewBox="0 0 40 36" fill="none" xmlns="http://www.w3.org/2000/svg">
<path id="Twitter" fill-rule="evenodd" clip-rule="evenodd" d="M34.935 6.91241C36.6132 5.86401 37.9009 4.2016 38.5076 2.22128C36.9363 3.19202 35.2 3.89824 33.3452 4.27683C31.8669 2.62899 29.754 1.6 27.4157 1.6C22.9321 1.6 19.2945 5.39805 19.2945 10.0819C19.2945 10.7469 19.3642 11.3924 19.5036 12.0137C12.7514 11.6594 6.76619 8.28602 2.75668 3.14834C2.05705 4.40546 1.65726 5.86401 1.65726 7.4172C1.65726 10.3586 3.09139 12.9553 5.27163 14.477C3.9421 14.4357 2.68695 14.0498 1.58986 13.4188V13.5232C1.58986 17.6343 4.3907 21.0635 8.10967 21.8401C7.42863 22.0391 6.71041 22.1386 5.96894 22.1386C5.44596 22.1386 4.9346 22.0876 4.43951 21.9881C5.47385 25.3566 8.47227 27.8102 12.0285 27.8757C9.2486 30.1521 5.74348 31.5087 1.93851 31.5087C1.28304 31.5087 0.634548 31.4699 0 31.3922C3.59577 33.7948 7.86793 35.2 12.4539 35.2C27.3995 35.2 35.5696 22.2769 35.5696 11.0672C35.5696 10.6983 35.5626 10.3294 35.5487 9.96784C37.1362 8.7714 38.5145 7.27887 39.6 5.57764C38.145 6.25231 36.5783 6.70856 34.935 6.91241Z" fill="#68C6E1"/>
</svg>
